<svg xmlns="http://www.w3.org/2000/svg" viewBox="0 0 841.9 595.3">
    <g fill="#61DAFB">
        <path d="M666.3 296.5c0-32.5-40.7-63.3-103.1-82.4 14.4-63.6 8-114.2-20.2-130.4-6.5-3.8-14.1-5.6-22.4-5.6v22.3c4.6 0 8.3.9 11.4 2.6 13.6 7.8 19.5 37.5 14.9 75.7-1.1 9.4-2.9 19.3-5.1 29.4-19.2-27.9-50.6-51.3-82.4-63.6C432 152.8 381.4 152 358.3 152c-15.2 0-29.5.7-42.9 2.1v-22.3c13.4-1.3 27.7-2.1 42.9-2.1 23.1 0 73.8.8 103.1 23.1 2.6 1.9 5.1 4 7.5 6.3-22.4-55.1-65.9-82.4-103.1-82.4-23.1 0-43.6 7.5-60.9 23.1-6.5 5.6-12.1 12.4-16.7 19.5C281.2 123.3 276.3 100 276.3 70.1c0-4.6-.9-8.3-2.6-11.4-7.8-13.6-37.5-19.5-75.7-14.9-9.4 1.1-19.3 2.9-29.4 5.1 27.9 19.2 51.3 50.6 63.6 82.4-28.6 17.6-57.4 50.6-57.4 82.4 0 32.5 40.7 63.3 103.1 82.4-14.4 63.6-8 114.2 20.2 130.4 6.5 3.8 14.1 5.6 22.4 5.6v-22.3c-4.6 0-8.3-.9-11.4-2.6-13.6-7.8-19.5-37.5-14.9-75.7 1.1-9.4 2.9-19.3 5.1-29.4 19.2 27.9 50.6 51.3 82.4 63.6 28.6 17.6 79.1 18.4 102.2 18.4 15.2 0 29.5-.7 42.9-2.1v22.3c-13.4 1.3-27.7 2.1-42.9 2.1-23.1 0-73.8-.8-103.1-23.1-2.6-1.9-5.1-4-7.5-6.3 22.4 55.1 65.9 82.4 103.1 82.4 23.1 0 43.6-7.5 60.9-23.1 6.5-5.6 12.1-12.4 16.7-19.5 5.6-12.4 10.5-35.8 10.5-65.7 0-4.6.9-8.3 2.6-11.4 7.8-13.6 37.5-19.5 75.7-14.9 9.4-1.1 19.3-2.9 29.4-5.1-27.9-19.2-51.3-50.6-63.6-82.4 28.6-17.6 57.4-50.6 57.4-82.4zM421.4 430.2c-17.6-28.6-50.6-57.4-82.4-57.4s-64.8 28.8-82.4 57.4c17.6 28.6 50.6 57.4 82.4 57.4s64.8-28.8 82.4-57.4z"/>
        <ellipse transform="rotate(-11.8)" cx="421.3" cy="296.5" rx="68.4" ry="20" stroke-width="1"/>
    </g>
</svg>
